<svg data-v-423bf9ae="" xmlns="http://www.w3.org/2000/svg" viewBox="0 0 415.75715201241627 185" class="iconAbove"><!----><!----><!----><g data-v-423bf9ae="" id="afcbf101-5af3-48f8-b569-362363a985c5" fill="black" transform="matrix(4.285714285714286,0,0,4.285714285714286,-3.3428498336246832,127.08442378895623)"><path d="M9.13 5.70L9.18 3.51L7.24 10.50L4.93 10.50L2.98 3.51L3.05 5.70L3.05 10.50L0.78 10.50L0.78-0.42L4.13-0.42L6.09 6.57L8.04-0.42L11.40-0.42L11.40 10.50L9.13 10.50L9.13 5.70ZM19.53 6.59L19.53 7.59L14.80 7.59L14.80 7.59Q14.85 8.34 15.20 8.67L15.20 8.67L15.20 8.67Q15.55 9.00 16.20 9.00L16.20 9.00L16.20 9.00Q16.76 9.00 17.10 8.74L17.10 8.74L17.10 8.74Q17.44 8.47 17.44 8.12L17.44 8.12L19.53 8.12L19.53 8.18L19.53 8.18Q19.53 9.27 18.64 9.97L18.64 9.97L18.64 9.97Q17.75 10.68 16.18 10.68L16.18 10.68L16.18 10.68Q14.41 10.68 13.50 9.67L13.50 9.67L13.50 9.67Q12.59 8.67 12.59 6.99L12.59 6.99L12.59 6.59L12.59 6.59Q12.59 4.93 13.50 3.91L13.50 3.91L13.50 3.91Q14.41 2.90 16.10 2.90L16.10 2.90L16.10 2.90Q17.79 2.90 18.66 3.91L18.66 3.91L18.66 3.91Q19.53 4.91 19.53 6.59L19.53 6.59ZM17.30 5.99L17.30 5.99Q17.21 4.58 16.06 4.58L16.06 4.58L16.06 4.58Q14.91 4.58 14.81 5.99L14.81 5.99L17.30 5.99ZM22.92 10.50L20.71 10.50L20.71-0.70L22.92-0.70L22.92 10.50ZM27.57 10.68L27.57 10.68L27.57 10.68Q25.84 10.68 24.97 9.70L24.97 9.70L24.97 9.70Q24.09 8.72 24.09 7.04L24.09 7.04L24.09 6.54L24.09 6.54Q24.09 4.86 24.97 3.88L24.97 3.88L24.97 3.88Q25.84 2.90 27.57 2.90L27.57 2.90L27.57 2.90Q29.30 2.90 30.17 3.88L30.17 3.88L30.17 3.88Q31.04 4.86 31.04 6.54L31.04 6.54L31.04 7.04L31.04 7.04Q31.04 8.72 30.17 9.70L30.17 9.70L30.17 9.70Q29.30 10.68 27.57 10.68ZM26.31 7.04L26.31 7.04Q26.31 8.78 27.57 8.78L27.57 8.78L27.57 8.78Q28.83 8.78 28.83 7.04L28.83 7.04L28.83 6.54L28.83 6.54Q28.83 4.80 27.57 4.80L27.57 4.80L27.57 4.80Q26.31 4.80 26.31 6.54L26.31 6.54L26.31 7.04ZM34.75 2.90L34.75 2.90L34.75 2.90Q35.95 2.90 36.65 3.71L36.65 3.71L36.65-0.70L38.86-0.70L38.86 8.40L38.99 10.50L37.00 10.50L36.85 9.62L36.85 9.62Q36.12 10.68 34.75 10.68L34.75 10.68L34.75 10.68Q31.99 10.68 31.99 7.04L31.99 7.04L31.99 6.54L31.99 6.54Q31.99 2.90 34.75 2.90ZM36.65 8.08L36.65 5.50L36.65 5.50Q36.18 4.80 35.39 4.80L35.39 4.80L35.39 4.80Q34.19 4.80 34.19 6.54L34.19 6.54L34.19 7.04L34.19 7.04Q34.19 8.78 35.39 8.78L35.39 8.78L35.39 8.78Q36.18 8.78 36.65 8.08L36.65 8.08ZM42.08 3.08L43.48 7.81L44.88 3.08L47.29 3.08L44.67 10.11L43.72 13.30L41.09 13.30L42.28 10.11L39.68 3.08L42.08 3.08ZM56.35 3.95L56.35-0.42L58.62-0.42L58.62 10.50L56.35 10.50L56.35 5.91L53.17 5.91L53.17 10.50L50.90 10.50L50.90-0.42L53.17-0.42L53.17 3.95L56.35 3.95ZM66.77 6.59L66.77 7.59L62.03 7.59L62.03 7.59Q62.09 8.34 62.44 8.67L62.44 8.67L62.44 8.67Q62.79 9.00 63.43 9.00L63.43 9.00L63.43 9.00Q63.99 9.00 64.34 8.74L64.34 8.74L64.34 8.74Q64.68 8.47 64.68 8.12L64.68 8.12L66.77 8.12L66.77 8.18L66.77 8.18Q66.77 9.27 65.88 9.97L65.88 9.97L65.88 9.97Q64.99 10.68 63.42 10.68L63.42 10.68L63.42 10.68Q61.64 10.68 60.73 9.67L60.73 9.67L60.73 9.67Q59.82 8.67 59.82 6.99L59.82 6.99L59.82 6.59L59.82 6.59Q59.82 4.93 60.73 3.91L60.73 3.91L60.73 3.91Q61.64 2.90 63.34 2.90L63.34 2.90L63.34 2.90Q65.03 2.90 65.90 3.91L65.90 3.91L65.90 3.91Q66.77 4.91 66.77 6.59L66.77 6.59ZM64.54 5.99L64.54 5.99Q64.44 4.58 63.29 4.58L63.29 4.58L63.29 4.58Q62.15 4.58 62.05 5.99L62.05 5.99L64.54 5.99ZM74.33 10.50L72.34 10.50L72.20 9.73L72.20 9.73Q71.32 10.68 69.87 10.68L69.87 10.68L69.87 10.68Q68.70 10.68 68.15 10.06L68.15 10.06L68.15 10.06Q67.61 9.44 67.61 8.46L67.61 8.46L67.61 8.32L67.61 8.32Q67.61 7.20 68.28 6.66L68.28 6.66L68.28 6.66Q68.96 6.13 70.27 5.94L70.27 5.94L71.97 5.67L71.97 5.67Q71.96 5.10 71.74 4.84L71.74 4.84L71.74 4.84Q71.51 4.58 70.97 4.58L70.97 4.58L70.97 4.58Q69.97 4.58 69.97 5.53L69.97 5.53L67.89 5.53L67.89 5.40L67.89 5.40Q67.89 4.30 68.61 3.60L68.61 3.60L68.61 3.60Q69.34 2.90 71.04 2.90L71.04 2.90L71.04 2.90Q72.77 2.90 73.48 3.60L73.48 3.60L73.48 3.60Q74.19 4.30 74.19 5.73L74.19 5.73L74.19 8.40L74.33 10.50ZM70.69 8.89L70.69 8.89L70.69 8.89Q71.44 8.89 71.97 8.33L71.97 8.33L71.97 6.97L70.71 7.17L70.71 7.17Q69.80 7.32 69.80 8.05L69.80 8.05L69.80 8.13L69.80 8.13Q69.80 8.46 70.02 8.67L70.02 8.67L70.02 8.67Q70.24 8.89 70.69 8.89ZM80.26 10.50L77.17 10.50L75.01 3.08L77.29 3.08L78.72 8.72L80.14 3.08L82.43 3.08L80.26 10.50ZM89.92 6.59L89.92 7.59L85.19 7.59L85.19 7.59Q85.25 8.34 85.60 8.67L85.60 8.67L85.60 8.67Q85.95 9.00 86.59 9.00L86.59 9.00L86.59 9.00Q87.15 9.00 87.49 8.74L87.49 8.74L87.49 8.74Q87.84 8.47 87.84 8.12L87.84 8.12L89.92 8.12L89.92 8.18L89.92 8.18Q89.92 9.27 89.03 9.97L89.03 9.97L89.03 9.97Q88.14 10.68 86.58 10.68L86.58 10.68L86.58 10.68Q84.80 10.68 83.89 9.67L83.89 9.67L83.89 9.67Q82.98 8.67 82.98 6.99L82.98 6.99L82.98 6.59L82.98 6.59Q82.98 4.93 83.89 3.91L83.89 3.91L83.89 3.91Q84.80 2.90 86.49 2.90L86.49 2.90L86.49 2.90Q88.19 2.90 89.05 3.91L89.05 3.91L89.05 3.91Q89.92 4.91 89.92 6.59L89.92 6.59ZM87.70 5.99L87.70 5.99Q87.60 4.58 86.45 4.58L86.45 4.58L86.45 4.58Q85.30 4.58 85.20 5.99L85.20 5.99L87.70 5.99ZM97.79 5.47L97.79 10.50L95.59 10.50L95.59 5.84L95.59 5.84Q95.59 4.80 94.61 4.80L94.61 4.80L94.61 4.80Q93.76 4.80 93.31 5.50L93.31 5.50L93.31 10.50L91.10 10.50L91.10 5.18L90.97 3.08L92.95 3.08L93.11 4.03L93.11 4.03Q93.91 2.90 95.49 2.90L95.49 2.90L95.49 2.90Q96.67 2.90 97.23 3.63L97.23 3.63L97.23 3.63Q97.79 4.35 97.79 5.47L97.79 5.47Z"></path></g><!----><g data-v-423bf9ae="" id="da94038b-8421-446c-bb01-8e9ee2683d15" transform="matrix(1.1109776814778647,0,0,1.1109776814778647,152.45115067714747,0.4577866066130767)" stroke="none" fill="black"><path clip-rule="evenodd" d="M47.102 0h5.784c8.338.642 15.042 2.917 20.99 5.95a976.829 976.829 0 0 1-29.253 29.252c-2.969-3.846-6.214-6.932-13.221-6.279-6.848.638-12.008 6.789-12.065 13.552-.093 11.1 12.636 17.426 21.981 11.239 2.455-1.625 4.708-4.378 6.941-6.611 6.658-6.659 13.369-13.473 19.997-20.164 5.471 4.927 10.706 10.542 16.196 16.032.574.574 2.305 1.916 2.314 2.148.021.503-3.571 3.738-3.967 4.132-4.035 4.035-8.129 8.161-12.23 11.9-2.845-5.982-12.565-8.104-18.84-4.297-3.834 2.326-6.286 6.06-6.446 11.238-.221 7.125 4.855 13.32 11.9 14.047 9.767 1.009 13.735-5.969 18.51-10.742 8.042-8.042 16.394-16.425 24.295-23.963.308 16.392-5.383 28.214-13.388 36.524-8.017 8.322-18.679 14.98-33.715 16.03h-5.784c-14.023-1.231-24.828-6.812-32.558-14.543C6.814 77.715 1.225 66.916 0 52.887v-5.785C.812 33.583 7.182 22 14.709 14.544 22.682 6.645 33.328 1.089 47.102 0z"></path></g><!----></svg>