<svg id="visual" viewBox="0 0 900 600" width="900" height="600" xmlns="http://www.w3.org/2000/svg" xmlns:xlink="http://www.w3.org/1999/xlink" version="1.1"><rect x="0" y="0" width="900" height="600" fill="#001220"></rect><path d="M0 209L30 219.2C60 229.3 120 249.7 180 261.7C240 273.7 300 277.3 360 265.7C420 254 480 227 540 230.5C600 234 660 268 720 274.2C780 280.3 840 258.7 870 247.8L900 237L900 0L870 0C840 0 780 0 720 0C660 0 600 0 540 0C480 0 420 0 360 0C300 0 240 0 180 0C120 0 60 0 30 0L0 0Z" fill="#8B7AF4" stroke-linecap="round" stroke-linejoin="miter"></path></svg>